<mxfile host="app.diagrams.net" agent="Mozilla/5.0 (Windows NT 10.0; Win64; x64) AppleWebKit/537.36 (KHTML, like Gecko) Chrome/131.0.0.0 Safari/537.36" version="26.0.5">
  <diagram name="Trang-1" id="ancpxMUQWDVOIYIjs7_-">
    <mxGraphModel dx="1877" dy="653" grid="1" gridSize="10" guides="1" tooltips="1" connect="1" arrows="1" fold="1" page="1" pageScale="1" pageWidth="827" pageHeight="1169" math="0" shadow="0">
      <root>
        <mxCell id="0" />
        <mxCell id="1" parent="0" />
        <mxCell id="-rLc-lz_uGAY2D0lGmqv-1" value="Supplier" style="rounded=0;whiteSpace=wrap;html=1;" parent="1" vertex="1">
          <mxGeometry x="120" y="240" width="120" height="60" as="geometry" />
        </mxCell>
        <mxCell id="-rLc-lz_uGAY2D0lGmqv-2" value="Address" style="rounded=0;whiteSpace=wrap;html=1;" parent="1" vertex="1">
          <mxGeometry x="120" y="490" width="120" height="60" as="geometry" />
        </mxCell>
        <mxCell id="-rLc-lz_uGAY2D0lGmqv-5" value="Material" style="rounded=0;whiteSpace=wrap;html=1;" parent="1" vertex="1">
          <mxGeometry x="660" y="240" width="120" height="60" as="geometry" />
        </mxCell>
        <mxCell id="-rLc-lz_uGAY2D0lGmqv-6" value="yes" style="rhombus;whiteSpace=wrap;html=1;" parent="1" vertex="1">
          <mxGeometry x="140" y="360" width="80" height="80" as="geometry" />
        </mxCell>
        <mxCell id="-rLc-lz_uGAY2D0lGmqv-8" value="" style="endArrow=classic;html=1;rounded=0;exitX=0.5;exitY=1;exitDx=0;exitDy=0;entryX=0.5;entryY=0;entryDx=0;entryDy=0;" parent="1" source="-rLc-lz_uGAY2D0lGmqv-6" target="-rLc-lz_uGAY2D0lGmqv-2" edge="1">
          <mxGeometry width="50" height="50" relative="1" as="geometry">
            <mxPoint x="390" y="380" as="sourcePoint" />
            <mxPoint x="440" y="330" as="targetPoint" />
          </mxGeometry>
        </mxCell>
        <mxCell id="-rLc-lz_uGAY2D0lGmqv-9" value="n" style="edgeLabel;html=1;align=center;verticalAlign=middle;resizable=0;points=[];" parent="-rLc-lz_uGAY2D0lGmqv-8" vertex="1" connectable="0">
          <mxGeometry x="-0.26" y="2" relative="1" as="geometry">
            <mxPoint as="offset" />
          </mxGeometry>
        </mxCell>
        <mxCell id="-rLc-lz_uGAY2D0lGmqv-10" value="" style="endArrow=none;html=1;rounded=0;exitX=0.5;exitY=1;exitDx=0;exitDy=0;entryX=0.5;entryY=0;entryDx=0;entryDy=0;" parent="1" source="-rLc-lz_uGAY2D0lGmqv-1" target="-rLc-lz_uGAY2D0lGmqv-6" edge="1">
          <mxGeometry width="50" height="50" relative="1" as="geometry">
            <mxPoint x="390" y="380" as="sourcePoint" />
            <mxPoint x="440" y="330" as="targetPoint" />
          </mxGeometry>
        </mxCell>
        <mxCell id="-rLc-lz_uGAY2D0lGmqv-11" value="1" style="edgeLabel;html=1;align=center;verticalAlign=middle;resizable=0;points=[];" parent="-rLc-lz_uGAY2D0lGmqv-10" vertex="1" connectable="0">
          <mxGeometry y="1" relative="1" as="geometry">
            <mxPoint y="-1" as="offset" />
          </mxGeometry>
        </mxCell>
        <mxCell id="-rLc-lz_uGAY2D0lGmqv-12" value="yes" style="rhombus;whiteSpace=wrap;html=1;" parent="1" vertex="1">
          <mxGeometry x="390" y="380" width="80" height="80" as="geometry" />
        </mxCell>
        <mxCell id="-rLc-lz_uGAY2D0lGmqv-14" value="" style="endArrow=classic;html=1;rounded=0;entryX=0;entryY=0.75;entryDx=0;entryDy=0;exitX=0.838;exitY=0.65;exitDx=0;exitDy=0;exitPerimeter=0;" parent="1" source="-rLc-lz_uGAY2D0lGmqv-12" target="5zVsOLFdgHFlEzCEFcNd-1" edge="1">
          <mxGeometry width="50" height="50" relative="1" as="geometry">
            <mxPoint x="390" y="350" as="sourcePoint" />
            <mxPoint x="660" y="535" as="targetPoint" />
          </mxGeometry>
        </mxCell>
        <mxCell id="-rLc-lz_uGAY2D0lGmqv-15" value="n" style="edgeLabel;html=1;align=center;verticalAlign=middle;resizable=0;points=[];" parent="-rLc-lz_uGAY2D0lGmqv-14" vertex="1" connectable="0">
          <mxGeometry relative="1" as="geometry">
            <mxPoint as="offset" />
          </mxGeometry>
        </mxCell>
        <mxCell id="-rLc-lz_uGAY2D0lGmqv-16" value="" style="endArrow=none;html=1;rounded=0;exitX=1;exitY=0.617;exitDx=0;exitDy=0;entryX=0;entryY=0;entryDx=0;entryDy=0;exitPerimeter=0;" parent="1" source="-rLc-lz_uGAY2D0lGmqv-1" target="-rLc-lz_uGAY2D0lGmqv-12" edge="1">
          <mxGeometry width="50" height="50" relative="1" as="geometry">
            <mxPoint x="390" y="350" as="sourcePoint" />
            <mxPoint x="440" y="300" as="targetPoint" />
          </mxGeometry>
        </mxCell>
        <mxCell id="-rLc-lz_uGAY2D0lGmqv-17" value="1" style="edgeLabel;html=1;align=center;verticalAlign=middle;resizable=0;points=[];" parent="-rLc-lz_uGAY2D0lGmqv-16" vertex="1" connectable="0">
          <mxGeometry x="0.06" y="-1" relative="1" as="geometry">
            <mxPoint y="-1" as="offset" />
          </mxGeometry>
        </mxCell>
        <mxCell id="-rLc-lz_uGAY2D0lGmqv-18" value="" style="endArrow=none;html=1;rounded=0;exitX=0.5;exitY=1;exitDx=0;exitDy=0;" parent="1" source="-rLc-lz_uGAY2D0lGmqv-5" target="-rLc-lz_uGAY2D0lGmqv-20" edge="1">
          <mxGeometry width="50" height="50" relative="1" as="geometry">
            <mxPoint x="600" y="270" as="sourcePoint" />
            <mxPoint x="540" y="370" as="targetPoint" />
          </mxGeometry>
        </mxCell>
        <mxCell id="-rLc-lz_uGAY2D0lGmqv-19" value="1" style="edgeLabel;html=1;align=center;verticalAlign=middle;resizable=0;points=[];" parent="-rLc-lz_uGAY2D0lGmqv-18" vertex="1" connectable="0">
          <mxGeometry x="0.04" y="1" relative="1" as="geometry">
            <mxPoint as="offset" />
          </mxGeometry>
        </mxCell>
        <mxCell id="-rLc-lz_uGAY2D0lGmqv-20" value="yes" style="rhombus;whiteSpace=wrap;html=1;" parent="1" vertex="1">
          <mxGeometry x="680" y="360" width="80" height="80" as="geometry" />
        </mxCell>
        <mxCell id="-rLc-lz_uGAY2D0lGmqv-21" value="" style="endArrow=classic;html=1;rounded=0;entryX=0.5;entryY=0;entryDx=0;entryDy=0;exitX=0.5;exitY=1;exitDx=0;exitDy=0;" parent="1" source="-rLc-lz_uGAY2D0lGmqv-20" target="5zVsOLFdgHFlEzCEFcNd-1" edge="1">
          <mxGeometry width="50" height="50" relative="1" as="geometry">
            <mxPoint x="390" y="350" as="sourcePoint" />
            <mxPoint x="720" y="500" as="targetPoint" />
          </mxGeometry>
        </mxCell>
        <mxCell id="-rLc-lz_uGAY2D0lGmqv-22" value="n" style="edgeLabel;html=1;align=center;verticalAlign=middle;resizable=0;points=[];" parent="-rLc-lz_uGAY2D0lGmqv-21" vertex="1" connectable="0">
          <mxGeometry y="1" relative="1" as="geometry">
            <mxPoint y="-1" as="offset" />
          </mxGeometry>
        </mxCell>
        <mxCell id="-rLc-lz_uGAY2D0lGmqv-23" value="&lt;u&gt;supplier_id&lt;/u&gt;" style="ellipse;whiteSpace=wrap;html=1;" parent="1" vertex="1">
          <mxGeometry x="-80" y="230" width="120" height="80" as="geometry" />
        </mxCell>
        <mxCell id="-rLc-lz_uGAY2D0lGmqv-24" value="contact_info" style="ellipse;whiteSpace=wrap;html=1;" parent="1" vertex="1">
          <mxGeometry x="-40" y="330" width="120" height="80" as="geometry" />
        </mxCell>
        <mxCell id="-rLc-lz_uGAY2D0lGmqv-25" value="payment_terms" style="ellipse;whiteSpace=wrap;html=1;" parent="1" vertex="1">
          <mxGeometry x="110" y="90" width="120" height="80" as="geometry" />
        </mxCell>
        <mxCell id="-rLc-lz_uGAY2D0lGmqv-26" value="supplier_name" style="ellipse;whiteSpace=wrap;html=1;" parent="1" vertex="1">
          <mxGeometry x="-50" y="100" width="120" height="80" as="geometry" />
        </mxCell>
        <mxCell id="-rLc-lz_uGAY2D0lGmqv-27" value="" style="endArrow=none;html=1;rounded=0;entryX=0.592;entryY=1.038;entryDx=0;entryDy=0;entryPerimeter=0;exitX=0.5;exitY=0;exitDx=0;exitDy=0;" parent="1" source="-rLc-lz_uGAY2D0lGmqv-1" target="-rLc-lz_uGAY2D0lGmqv-25" edge="1">
          <mxGeometry width="50" height="50" relative="1" as="geometry">
            <mxPoint x="390" y="290" as="sourcePoint" />
            <mxPoint x="440" y="240" as="targetPoint" />
          </mxGeometry>
        </mxCell>
        <mxCell id="-rLc-lz_uGAY2D0lGmqv-28" value="" style="endArrow=none;html=1;rounded=0;entryX=1;entryY=1;entryDx=0;entryDy=0;exitX=0;exitY=0;exitDx=0;exitDy=0;" parent="1" source="-rLc-lz_uGAY2D0lGmqv-1" target="-rLc-lz_uGAY2D0lGmqv-26" edge="1">
          <mxGeometry width="50" height="50" relative="1" as="geometry">
            <mxPoint x="400" y="300" as="sourcePoint" />
            <mxPoint x="450" y="250" as="targetPoint" />
          </mxGeometry>
        </mxCell>
        <mxCell id="-rLc-lz_uGAY2D0lGmqv-29" value="" style="endArrow=none;html=1;rounded=0;entryX=1;entryY=0.5;entryDx=0;entryDy=0;exitX=0;exitY=0.5;exitDx=0;exitDy=0;" parent="1" source="-rLc-lz_uGAY2D0lGmqv-1" target="-rLc-lz_uGAY2D0lGmqv-23" edge="1">
          <mxGeometry width="50" height="50" relative="1" as="geometry">
            <mxPoint x="410" y="310" as="sourcePoint" />
            <mxPoint x="460" y="260" as="targetPoint" />
          </mxGeometry>
        </mxCell>
        <mxCell id="-rLc-lz_uGAY2D0lGmqv-30" value="" style="endArrow=none;html=1;rounded=0;exitX=0;exitY=1;exitDx=0;exitDy=0;" parent="1" source="-rLc-lz_uGAY2D0lGmqv-1" target="-rLc-lz_uGAY2D0lGmqv-24" edge="1">
          <mxGeometry width="50" height="50" relative="1" as="geometry">
            <mxPoint x="130" y="280" as="sourcePoint" />
            <mxPoint x="50" y="280" as="targetPoint" />
          </mxGeometry>
        </mxCell>
        <mxCell id="-rLc-lz_uGAY2D0lGmqv-31" value="&lt;u&gt;material_id&lt;/u&gt;" style="ellipse;whiteSpace=wrap;html=1;" parent="1" vertex="1">
          <mxGeometry x="770" y="120" width="120" height="80" as="geometry" />
        </mxCell>
        <mxCell id="-rLc-lz_uGAY2D0lGmqv-32" value="&lt;u&gt;address_id&lt;/u&gt;" style="ellipse;whiteSpace=wrap;html=1;" parent="1" vertex="1">
          <mxGeometry x="-50" y="440" width="120" height="80" as="geometry" />
        </mxCell>
        <mxCell id="-rLc-lz_uGAY2D0lGmqv-33" value="&lt;u&gt;supplier_id&lt;/u&gt;" style="ellipse;whiteSpace=wrap;html=1;" parent="1" vertex="1">
          <mxGeometry x="-50" y="540" width="120" height="80" as="geometry" />
        </mxCell>
        <mxCell id="-rLc-lz_uGAY2D0lGmqv-34" value="postal_code" style="ellipse;whiteSpace=wrap;html=1;" parent="1" vertex="1">
          <mxGeometry x="150" y="580" width="120" height="80" as="geometry" />
        </mxCell>
        <mxCell id="-rLc-lz_uGAY2D0lGmqv-35" value="address" style="ellipse;whiteSpace=wrap;html=1;" parent="1" vertex="1">
          <mxGeometry x="30" y="620" width="120" height="80" as="geometry" />
        </mxCell>
        <mxCell id="-rLc-lz_uGAY2D0lGmqv-36" value="contact_phone" style="ellipse;whiteSpace=wrap;html=1;" parent="1" vertex="1">
          <mxGeometry x="250" y="410" width="120" height="80" as="geometry" />
        </mxCell>
        <mxCell id="-rLc-lz_uGAY2D0lGmqv-37" value="contact_person" style="ellipse;whiteSpace=wrap;html=1;" parent="1" vertex="1">
          <mxGeometry x="270" y="520" width="120" height="80" as="geometry" />
        </mxCell>
        <mxCell id="-rLc-lz_uGAY2D0lGmqv-38" value="" style="endArrow=none;html=1;rounded=0;entryX=1;entryY=0.5;entryDx=0;entryDy=0;exitX=0;exitY=0.25;exitDx=0;exitDy=0;" parent="1" source="-rLc-lz_uGAY2D0lGmqv-2" target="-rLc-lz_uGAY2D0lGmqv-32" edge="1">
          <mxGeometry width="50" height="50" relative="1" as="geometry">
            <mxPoint x="390" y="510" as="sourcePoint" />
            <mxPoint x="440" y="460" as="targetPoint" />
          </mxGeometry>
        </mxCell>
        <mxCell id="-rLc-lz_uGAY2D0lGmqv-39" value="" style="endArrow=none;html=1;rounded=0;entryX=0;entryY=1;entryDx=0;entryDy=0;exitX=1;exitY=0.25;exitDx=0;exitDy=0;" parent="1" source="-rLc-lz_uGAY2D0lGmqv-2" target="-rLc-lz_uGAY2D0lGmqv-36" edge="1">
          <mxGeometry width="50" height="50" relative="1" as="geometry">
            <mxPoint x="400" y="520" as="sourcePoint" />
            <mxPoint x="450" y="470" as="targetPoint" />
          </mxGeometry>
        </mxCell>
        <mxCell id="-rLc-lz_uGAY2D0lGmqv-40" value="" style="endArrow=none;html=1;rounded=0;entryX=1;entryY=0.75;entryDx=0;entryDy=0;exitX=0;exitY=0.5;exitDx=0;exitDy=0;" parent="1" source="-rLc-lz_uGAY2D0lGmqv-37" target="-rLc-lz_uGAY2D0lGmqv-2" edge="1">
          <mxGeometry width="50" height="50" relative="1" as="geometry">
            <mxPoint x="410" y="530" as="sourcePoint" />
            <mxPoint x="460" y="480" as="targetPoint" />
          </mxGeometry>
        </mxCell>
        <mxCell id="-rLc-lz_uGAY2D0lGmqv-41" value="" style="endArrow=none;html=1;rounded=0;entryX=0.5;entryY=1;entryDx=0;entryDy=0;exitX=0.5;exitY=0;exitDx=0;exitDy=0;" parent="1" source="-rLc-lz_uGAY2D0lGmqv-34" target="-rLc-lz_uGAY2D0lGmqv-2" edge="1">
          <mxGeometry width="50" height="50" relative="1" as="geometry">
            <mxPoint x="420" y="540" as="sourcePoint" />
            <mxPoint x="470" y="490" as="targetPoint" />
          </mxGeometry>
        </mxCell>
        <mxCell id="-rLc-lz_uGAY2D0lGmqv-42" value="" style="endArrow=none;html=1;rounded=0;entryX=1;entryY=0;entryDx=0;entryDy=0;exitX=0;exitY=0.75;exitDx=0;exitDy=0;" parent="1" source="-rLc-lz_uGAY2D0lGmqv-2" target="-rLc-lz_uGAY2D0lGmqv-33" edge="1">
          <mxGeometry width="50" height="50" relative="1" as="geometry">
            <mxPoint x="430" y="550" as="sourcePoint" />
            <mxPoint x="480" y="500" as="targetPoint" />
          </mxGeometry>
        </mxCell>
        <mxCell id="-rLc-lz_uGAY2D0lGmqv-43" value="" style="endArrow=none;html=1;rounded=0;entryX=0.183;entryY=1.033;entryDx=0;entryDy=0;entryPerimeter=0;exitX=0.6;exitY=0.038;exitDx=0;exitDy=0;exitPerimeter=0;" parent="1" source="-rLc-lz_uGAY2D0lGmqv-35" target="-rLc-lz_uGAY2D0lGmqv-2" edge="1">
          <mxGeometry width="50" height="50" relative="1" as="geometry">
            <mxPoint x="440" y="560" as="sourcePoint" />
            <mxPoint x="490" y="510" as="targetPoint" />
          </mxGeometry>
        </mxCell>
        <mxCell id="-rLc-lz_uGAY2D0lGmqv-44" value="name" style="ellipse;whiteSpace=wrap;html=1;" parent="1" vertex="1">
          <mxGeometry x="490" y="230" width="120" height="80" as="geometry" />
        </mxCell>
        <mxCell id="-rLc-lz_uGAY2D0lGmqv-45" value="description" style="ellipse;whiteSpace=wrap;html=1;" parent="1" vertex="1">
          <mxGeometry x="827" y="230" width="120" height="80" as="geometry" />
        </mxCell>
        <mxCell id="-rLc-lz_uGAY2D0lGmqv-46" value="unit" style="ellipse;whiteSpace=wrap;html=1;" parent="1" vertex="1">
          <mxGeometry x="580" y="120" width="120" height="80" as="geometry" />
        </mxCell>
        <mxCell id="-rLc-lz_uGAY2D0lGmqv-47" value="" style="endArrow=none;html=1;rounded=0;entryX=0.25;entryY=0;entryDx=0;entryDy=0;exitX=0.5;exitY=1;exitDx=0;exitDy=0;" parent="1" source="-rLc-lz_uGAY2D0lGmqv-46" target="-rLc-lz_uGAY2D0lGmqv-5" edge="1">
          <mxGeometry width="50" height="50" relative="1" as="geometry">
            <mxPoint x="490" y="250" as="sourcePoint" />
            <mxPoint x="540" y="200" as="targetPoint" />
          </mxGeometry>
        </mxCell>
        <mxCell id="-rLc-lz_uGAY2D0lGmqv-48" value="" style="endArrow=none;html=1;rounded=0;entryX=0.05;entryY=0.763;entryDx=0;entryDy=0;entryPerimeter=0;exitX=0.5;exitY=0;exitDx=0;exitDy=0;" parent="1" source="-rLc-lz_uGAY2D0lGmqv-5" target="-rLc-lz_uGAY2D0lGmqv-31" edge="1">
          <mxGeometry width="50" height="50" relative="1" as="geometry">
            <mxPoint x="490" y="250" as="sourcePoint" />
            <mxPoint x="540" y="200" as="targetPoint" />
          </mxGeometry>
        </mxCell>
        <mxCell id="-rLc-lz_uGAY2D0lGmqv-49" value="" style="endArrow=none;html=1;rounded=0;entryX=-0.008;entryY=0.638;entryDx=0;entryDy=0;entryPerimeter=0;" parent="1" target="-rLc-lz_uGAY2D0lGmqv-45" edge="1">
          <mxGeometry width="50" height="50" relative="1" as="geometry">
            <mxPoint x="780" y="280" as="sourcePoint" />
            <mxPoint x="540" y="200" as="targetPoint" />
          </mxGeometry>
        </mxCell>
        <mxCell id="-rLc-lz_uGAY2D0lGmqv-50" value="" style="endArrow=none;html=1;rounded=0;entryX=0;entryY=0.5;entryDx=0;entryDy=0;exitX=1;exitY=0.5;exitDx=0;exitDy=0;" parent="1" source="-rLc-lz_uGAY2D0lGmqv-44" target="-rLc-lz_uGAY2D0lGmqv-5" edge="1">
          <mxGeometry width="50" height="50" relative="1" as="geometry">
            <mxPoint x="490" y="250" as="sourcePoint" />
            <mxPoint x="540" y="200" as="targetPoint" />
          </mxGeometry>
        </mxCell>
        <mxCell id="-rLc-lz_uGAY2D0lGmqv-51" value="&lt;u&gt;supplier_id&lt;/u&gt;" style="ellipse;whiteSpace=wrap;html=1;" parent="1" vertex="1">
          <mxGeometry x="827" y="500" width="120" height="80" as="geometry" />
        </mxCell>
        <mxCell id="-rLc-lz_uGAY2D0lGmqv-52" value="unit_price" style="ellipse;whiteSpace=wrap;html=1;" parent="1" vertex="1">
          <mxGeometry x="600" y="600" width="120" height="80" as="geometry" />
        </mxCell>
        <mxCell id="-rLc-lz_uGAY2D0lGmqv-53" value="&lt;u&gt;material_id&lt;/u&gt;" style="ellipse;whiteSpace=wrap;html=1;" parent="1" vertex="1">
          <mxGeometry x="770" y="600" width="120" height="80" as="geometry" />
        </mxCell>
        <mxCell id="-rLc-lz_uGAY2D0lGmqv-54" value="" style="endArrow=none;html=1;rounded=0;entryX=0;entryY=0;entryDx=0;entryDy=0;exitX=1;exitY=0.5;exitDx=0;exitDy=0;" parent="1" source="5zVsOLFdgHFlEzCEFcNd-1" target="-rLc-lz_uGAY2D0lGmqv-51" edge="1">
          <mxGeometry width="50" height="50" relative="1" as="geometry">
            <mxPoint x="780" y="517.5" as="sourcePoint" />
            <mxPoint x="540" y="450" as="targetPoint" />
          </mxGeometry>
        </mxCell>
        <mxCell id="-rLc-lz_uGAY2D0lGmqv-55" value="" style="endArrow=none;html=1;rounded=0;entryX=0.325;entryY=-0.012;entryDx=0;entryDy=0;exitX=1;exitY=0.75;exitDx=0;exitDy=0;entryPerimeter=0;" parent="1" source="5zVsOLFdgHFlEzCEFcNd-1" target="-rLc-lz_uGAY2D0lGmqv-53" edge="1">
          <mxGeometry width="50" height="50" relative="1" as="geometry">
            <mxPoint x="780" y="552.5" as="sourcePoint" />
            <mxPoint x="855" y="522" as="targetPoint" />
          </mxGeometry>
        </mxCell>
        <mxCell id="-rLc-lz_uGAY2D0lGmqv-56" value="" style="endArrow=none;html=1;rounded=0;entryX=0.5;entryY=0;entryDx=0;entryDy=0;exitX=0.5;exitY=1;exitDx=0;exitDy=0;" parent="1" source="5zVsOLFdgHFlEzCEFcNd-1" target="-rLc-lz_uGAY2D0lGmqv-52" edge="1">
          <mxGeometry width="50" height="50" relative="1" as="geometry">
            <mxPoint x="690" y="570" as="sourcePoint" />
            <mxPoint x="819" y="609" as="targetPoint" />
          </mxGeometry>
        </mxCell>
        <mxCell id="5zVsOLFdgHFlEzCEFcNd-1" value="" style="rounded=0;whiteSpace=wrap;html=1;" vertex="1" parent="1">
          <mxGeometry x="670" y="500" width="110" height="60" as="geometry" />
        </mxCell>
        <mxCell id="5zVsOLFdgHFlEzCEFcNd-3" value="UnitPrice" style="rounded=0;whiteSpace=wrap;html=1;" vertex="1" parent="1">
          <mxGeometry x="675" y="505" width="100" height="50" as="geometry" />
        </mxCell>
      </root>
    </mxGraphModel>
  </diagram>
</mxfile>
